<svg width="11092" height="2484" viewBox="0 0 11092 2484" fill="none" xmlns="http://www.w3.org/2000/svg">
<g filter="url(#filter0_d_301_17)">
<path d="M2310.12 1237.84C2310.99 1236.98 1521.43 443.066 1521.43 443.066C1502.39 424.019 1508.45 392.852 1531.82 381.597C1688.52 304.543 1881.58 327.053 2014.04 453.456C2101.48 537.435 2145.63 650.851 2144.77 762.535C2144.77 783.314 2153.42 803.226 2168.14 817.945L2374.19 1024C2394.1 1043.91 2428.73 1036.12 2437.39 1010.15C2530.02 743.488 2470.28 435.274 2257.31 222.295C1980.28 -54.751 1539.61 -72.0664 1241.8 169.483C1240.93 168.618 447.051 958.199 447.051 958.199C428.005 977.246 396.838 971.186 385.584 947.81C308.533 791.106 331.042 598.039 457.44 465.576C541.417 378.134 654.829 333.979 766.509 334.845C787.287 334.845 807.199 326.188 821.916 311.469L1027.96 105.416C1047.87 85.5037 1040.08 50.8729 1014.11 42.2152C747.463 -50.4221 439.259 9.31594 226.288 222.295C-50.7491 499.341 -68.0639 940.018 173.477 1237.84C172.612 1238.71 962.166 2032.62 962.166 2032.62C981.212 2051.67 975.152 2082.83 951.777 2094.09C795.078 2171.14 602.018 2148.63 469.56 2022.23C382.121 1938.25 337.968 1824.83 338.834 1713.15C338.834 1692.37 330.176 1672.46 315.459 1657.74L109.413 1451.69C89.5007 1431.78 54.8711 1439.57 46.2137 1465.54C-46.4204 1732.2 13.3156 2040.41 226.288 2253.39C503.324 2530.44 943.986 2547.75 1241.8 2306.2C1242.67 2307.07 2036.55 1517.49 2036.55 1517.49C2055.59 1498.44 2086.76 1504.5 2098.02 1527.88C2175.07 1684.58 2152.56 1877.65 2026.16 2010.11C1942.18 2097.55 1828.77 2141.71 1717.09 2140.84C1696.31 2140.84 1676.4 2149.5 1661.68 2164.22L1455.64 2370.27C1435.73 2390.18 1443.52 2424.81 1469.49 2433.47C1736.14 2526.11 2044.34 2466.37 2257.31 2253.39C2534.35 1976.34 2551.66 1535.67 2310.12 1237.84ZM1952.57 1388.49C1836.56 1349.53 1701.51 1376.37 1608.87 1469C1608.87 1469 1257.38 1820.51 1120.6 1957.3C1110.21 1967.69 1092.03 1957.3 1096.36 1942.58C1130.99 1827.43 1103.28 1698.43 1013.24 1607.53C1013.24 1607.53 659.157 1253.43 515.444 1108.84C505.056 1098.45 516.31 1080.27 530.162 1084.6C646.171 1123.56 781.226 1096.72 873.861 1004.08C873.861 1004.08 1223.62 654.314 1375.12 503.67C1385.51 493.281 1404.56 504.536 1399.36 518.388C1356.08 636.999 1382.05 774.656 1478.15 870.756C1478.15 870.756 1826.17 1218.8 1969.02 1362.51C1978.54 1375.5 1967.29 1393.68 1952.57 1388.49Z" fill="white"/>
<path d="M3206.88 1430.3C3214.8 1436.83 3224.94 1445.57 3237.29 1456.53C3249.64 1467.48 3263.74 1478.32 3279.59 1489.04C3303.36 1504.89 3326.9 1517.25 3350.21 1526.11C3373.51 1534.97 3397.98 1539.39 3423.62 1539.39C3447.39 1539.39 3467.32 1536.71 3483.4 1531.35C3499.48 1525.99 3512.18 1518.88 3521.51 1510.02C3530.83 1501.17 3537.47 1490.91 3541.43 1479.25C3545.39 1467.6 3547.37 1455.24 3547.37 1442.19C3547.37 1427.74 3541.9 1414.8 3530.94 1403.38C3519.99 1391.96 3506.59 1381.82 3490.74 1372.96C3474.89 1364.1 3458.35 1356.53 3441.1 1350.23C3423.85 1343.94 3408.94 1338.69 3396.35 1334.5C3340.42 1314.92 3291.48 1293.82 3249.53 1271.21C3207.57 1248.6 3172.62 1223.42 3144.65 1195.68C3116.68 1167.95 3095.71 1137.41 3081.72 1104.08C3067.74 1070.74 3060.75 1033.56 3060.75 992.536C3060.75 949.179 3069.49 909.784 3086.97 874.353C3104.45 838.921 3129.38 808.618 3161.78 783.443C3194.17 758.268 3233.21 738.804 3278.89 725.051C3324.57 711.298 3375.61 704.421 3432.01 704.421C3474.43 704.421 3515.1 709.2 3554.02 718.757C3592.94 728.314 3631.28 743.582 3669.03 764.562C3684.88 773.886 3699.91 783.56 3714.13 793.583C3728.34 803.606 3740.81 813.28 3751.53 822.604C3762.26 831.928 3770.76 840.786 3777.05 849.178C3783.35 857.57 3786.49 864.796 3786.49 870.856C3786.49 876.917 3784.98 882.511 3781.95 887.64C3778.92 892.768 3774.37 898.596 3768.31 905.122L3661.34 1019.11C3653.42 1027.03 3645.49 1031 3637.57 1031C3631.04 1031 3625.1 1029.13 3619.74 1025.4C3614.38 1021.67 3608.44 1017.01 3601.91 1011.42L3595.62 1005.82C3586.3 997.897 3575.92 989.739 3564.5 981.347C3553.08 972.955 3540.85 965.379 3527.8 958.619C3514.75 951.859 3501 946.265 3486.55 941.836C3472.1 937.407 3457.41 935.193 3442.5 935.193C3427.12 935.193 3412.67 936.475 3399.15 939.039C3385.63 941.603 3373.75 945.682 3363.49 951.277C3353.24 956.871 3345.08 964.214 3339.02 973.305C3332.96 982.396 3329.93 993.468 3329.93 1006.52C3329.93 1019.58 3333.19 1030.88 3339.72 1040.44C3346.24 1050 3356.03 1058.85 3369.08 1067.01C3382.14 1075.17 3398.33 1082.86 3417.68 1090.09C3437.02 1097.32 3459.51 1105.12 3485.15 1113.52C3534.56 1129.83 3580.12 1146.97 3621.84 1164.92C3663.55 1182.86 3699.56 1204.08 3729.86 1228.55C3760.16 1253.03 3783.81 1282.28 3800.83 1316.32C3817.84 1350.35 3826.35 1391.61 3826.35 1440.09C3826.35 1491.37 3815.86 1537.88 3794.88 1579.6C3773.91 1621.33 3745.13 1656.88 3708.53 1686.25C3671.94 1715.62 3628.95 1738.35 3579.54 1754.43C3530.13 1770.51 3476.99 1778.56 3420.12 1778.56C3366.52 1778.56 3313.85 1769 3262.11 1749.89C3210.37 1730.77 3162.13 1705.13 3117.38 1672.96C3098.74 1659.44 3083 1646.15 3070.19 1633.1C3057.37 1620.05 3047.23 1609.56 3039.77 1601.63L3037.67 1599.53C3037.21 1598.6 3036.74 1598.02 3036.28 1597.79C3035.81 1597.55 3035.34 1597.2 3034.88 1596.74C3034.41 1595.8 3033.95 1595.22 3033.48 1594.99C3033.01 1594.76 3032.55 1594.41 3032.08 1593.94C3021.36 1582.28 3016 1572.96 3016 1565.97C3016 1558.04 3021.36 1549.18 3032.08 1539.39L3153.04 1424.01C3162.83 1417.02 3170.75 1413.52 3176.81 1413.52C3181.01 1413.52 3185.43 1414.92 3190.1 1417.71C3194.76 1420.51 3200.35 1424.71 3206.88 1430.3ZM4878.61 1713.52C4878.61 1721.45 4877.21 1729.02 4874.41 1736.25C4871.62 1743.48 4866.95 1749.19 4860.43 1753.38C4855.3 1758.51 4849.24 1761.77 4842.25 1763.17C4835.26 1764.57 4829.2 1765.27 4824.07 1765.27H4686.33C4676.55 1765.27 4668.62 1763.99 4662.56 1761.42C4656.5 1758.86 4651.61 1755.25 4647.88 1750.58C4644.15 1745.92 4641 1740.21 4638.44 1733.45C4635.88 1726.69 4633.2 1719.35 4630.4 1711.42L4610.12 1658.98C4597.54 1671.56 4583.79 1684.97 4568.87 1699.19C4553.96 1713.4 4537.53 1726.58 4519.58 1738.7C4501.63 1750.82 4482.17 1760.96 4461.2 1769.12C4440.22 1777.28 4417.85 1781.35 4394.08 1781.35C4351.66 1781.35 4310.99 1775.99 4272.07 1765.27C4233.15 1754.55 4196.79 1739.28 4163 1719.47C4129.21 1699.65 4098.56 1675.88 4071.06 1648.14C4043.56 1620.4 4019.9 1589.51 4000.09 1555.48C3980.28 1521.45 3965.02 1484.73 3954.3 1445.34C3943.58 1405.94 3938.21 1364.8 3938.21 1321.91C3938.21 1257.11 3950.1 1196.85 3973.87 1141.14C3997.64 1085.43 4030.04 1036.94 4071.06 995.683C4112.08 954.424 4160.32 922.022 4215.79 898.479C4271.26 874.936 4330.69 863.164 4394.08 863.164C4422.98 863.164 4449.55 867.476 4473.78 876.101C4498.02 884.726 4520.05 896.031 4539.86 910.018C4559.67 924.004 4577.61 939.855 4593.69 957.57C4609.77 975.286 4624.11 993.235 4636.69 1011.42L4663.96 926.801C4668.62 915.146 4672.47 905.705 4675.5 898.479C4678.53 891.253 4681.79 885.891 4685.29 882.395C4688.78 878.898 4693.09 876.567 4698.22 875.402C4703.35 874.236 4710.57 873.654 4719.89 873.654H4824.07C4829.2 873.654 4835.26 874.353 4842.25 875.752C4849.24 877.15 4855.3 880.414 4860.43 885.542C4866.95 890.67 4871.62 896.498 4874.41 903.024C4877.21 909.551 4878.61 917.011 4878.61 925.402V1713.52ZM4189.92 1321.91C4189.92 1352.68 4194.7 1381.47 4204.25 1408.27C4213.81 1435.08 4227.44 1458.27 4245.15 1477.86C4262.87 1497.44 4284.19 1512.94 4309.13 1524.36C4334.07 1535.78 4361.68 1541.49 4391.98 1541.49C4423.21 1541.49 4452.23 1535.78 4479.03 1524.36C4505.83 1512.94 4529.14 1497.44 4548.95 1477.86C4568.76 1458.27 4584.25 1435.08 4595.44 1408.27C4606.63 1381.47 4612.22 1352.68 4612.22 1321.91C4612.22 1292.07 4606.63 1263.63 4595.44 1236.59C4584.25 1209.55 4568.76 1185.78 4548.95 1165.26C4529.14 1144.75 4505.83 1128.55 4479.03 1116.66C4452.23 1104.77 4423.21 1098.83 4391.98 1098.83C4361.68 1098.83 4334.07 1104.77 4309.13 1116.66C4284.19 1128.55 4262.87 1144.75 4245.15 1165.26C4227.44 1185.78 4213.81 1209.55 4204.25 1236.59C4194.7 1263.63 4189.92 1292.07 4189.92 1321.91ZM5046.41 666.659C5046.41 651.74 5050.14 639.153 5057.6 628.896C5065.06 618.64 5077.87 613.511 5096.05 613.511H5267.35C5272.01 613.511 5276.91 614.793 5282.03 617.358C5287.16 619.922 5291.94 623.535 5296.37 628.197C5300.79 632.859 5304.52 638.453 5307.55 644.98C5310.58 651.507 5312.1 658.733 5312.1 666.659V1711.42C5312.1 1729.14 5307.09 1742.54 5297.07 1751.63C5287.04 1760.72 5274.11 1765.27 5258.26 1765.27H5096.05C5077.87 1765.27 5065.06 1760.72 5057.6 1751.63C5050.14 1742.54 5046.41 1729.14 5046.41 1711.42V666.659ZM6223.82 1658.98C6182.81 1696.74 6136.66 1726.23 6085.39 1747.44C6034.11 1768.65 5979.81 1779.26 5922.48 1779.26C5858.62 1779.26 5798.26 1767.6 5741.39 1744.29C5684.53 1720.98 5634.65 1688.7 5591.77 1647.44C5548.89 1606.18 5514.86 1557.58 5489.69 1501.63C5464.52 1445.69 5451.93 1384.85 5451.93 1319.11C5451.93 1278.09 5456.94 1238.34 5466.97 1199.88C5476.99 1161.42 5491.2 1125.4 5509.62 1091.84C5528.03 1058.27 5550.4 1027.38 5576.74 999.179C5603.07 970.974 5632.55 946.848 5665.18 926.801C5697.81 906.754 5733.24 891.136 5771.46 879.947C5809.68 868.758 5850 863.164 5892.41 863.164C5931.1 863.164 5968.63 868.292 6004.98 878.549C6041.34 888.805 6075.48 903.258 6107.41 921.906C6139.34 940.554 6168.59 962.932 6195.16 989.039C6221.73 1015.15 6244.57 1043.7 6263.68 1074.7C6282.79 1105.71 6297.59 1138.81 6308.08 1174.01C6318.56 1209.2 6323.81 1245.45 6323.81 1282.75C6323.81 1306.99 6323.46 1326.8 6322.76 1342.19C6322.06 1357.57 6318.45 1369.81 6311.92 1378.9C6305.4 1387.99 6294.56 1394.29 6279.41 1397.78C6264.26 1401.28 6242 1403.03 6212.64 1403.03H5709.23C5713.89 1432.87 5723.33 1457.81 5737.55 1477.86C5751.76 1497.9 5768.19 1513.87 5786.84 1525.76C5805.48 1537.65 5825.29 1546.15 5846.27 1551.28C5867.24 1556.41 5887.05 1558.97 5905.7 1558.97C5922.48 1558.97 5939.73 1557.23 5957.44 1553.73C5975.15 1550.23 5992.28 1545.57 6008.83 1539.74C6025.38 1533.92 6040.52 1527.16 6054.27 1519.46C6068.03 1511.77 6079.1 1503.73 6087.49 1495.34C6094.94 1489.28 6101.35 1484.73 6106.71 1481.7C6112.07 1478.67 6117.78 1477.16 6123.84 1477.16C6129.9 1477.16 6136.08 1479.25 6142.37 1483.45C6148.66 1487.65 6155.77 1493.71 6163.7 1501.63L6237.81 1585.55C6242.94 1591.61 6246.2 1597.09 6247.6 1601.98C6249 1606.88 6249.69 1611.89 6249.69 1617.02C6249.69 1626.34 6247.13 1634.38 6242 1641.14C6236.88 1647.9 6230.82 1653.85 6223.82 1658.98ZM5887.52 1076.45C5869.34 1076.45 5851.75 1080.07 5834.73 1087.29C5817.72 1094.52 5801.75 1104.19 5786.84 1116.31C5771.92 1128.43 5758.52 1142.19 5746.64 1157.57C5734.75 1172.96 5725.08 1188.57 5717.62 1204.43H6074.9C6065.11 1186.24 6054.51 1169.46 6043.09 1154.08C6031.67 1138.69 6018.62 1125.17 6003.93 1113.52C5989.25 1101.86 5972.47 1092.77 5953.59 1086.24C5934.72 1079.72 5912.69 1076.45 5887.52 1076.45ZM6602.78 1489.04C6615.36 1501.63 6629 1512.24 6643.68 1520.86C6658.36 1529.49 6672.46 1536.48 6685.98 1541.84C6699.5 1547.2 6711.38 1551.05 6721.64 1553.38C6731.89 1555.71 6738.89 1556.88 6742.61 1556.88C6751.47 1556.88 6762.77 1556.53 6776.52 1555.83C6790.27 1555.13 6803.44 1553.03 6816.03 1549.53C6828.61 1546.04 6839.45 1540.33 6848.54 1532.4C6857.63 1524.48 6862.17 1513.29 6862.17 1498.83C6862.17 1485.78 6859.61 1475.41 6854.48 1467.72C6849.36 1460.02 6841.9 1453.5 6832.11 1448.13C6822.32 1442.77 6810.32 1437.99 6796.1 1433.8C6781.88 1429.6 6765.92 1424.71 6748.21 1419.11C6692.27 1404.19 6646.13 1386.25 6609.77 1365.27C6573.41 1344.29 6544.63 1320.86 6523.42 1294.99C6502.21 1269.11 6487.41 1241.26 6479.02 1211.42C6470.63 1181.58 6466.44 1150.11 6466.44 1117.01C6466.44 1078.32 6474.13 1043.12 6489.51 1011.42C6504.89 979.715 6526.8 952.559 6555.23 929.948C6583.67 907.337 6617.69 889.854 6657.31 877.5C6696.93 865.145 6740.98 858.968 6789.46 858.968C6818.82 858.968 6846.33 861.416 6871.96 866.311C6897.6 871.206 6922.07 878.898 6945.38 889.388C6968.68 899.878 6991.4 913.398 7013.55 929.948C7035.69 946.498 7057.71 966.195 7079.62 989.039C7087.54 998.363 7091.62 1007.1 7091.85 1015.26C7092.09 1023.42 7086.84 1032.16 7076.12 1041.49C7057.94 1056.41 7040.58 1071.09 7024.03 1085.54C7007.49 1100 6990.36 1116.08 6972.64 1133.8C6967.05 1138.46 6961.46 1141.37 6955.86 1142.54C6950.27 1143.7 6944.91 1143.59 6939.78 1142.19C6934.65 1140.79 6929.76 1138.46 6925.1 1135.19C6920.44 1131.93 6916.24 1127.97 6912.51 1123.31C6896.2 1105.12 6877.56 1092.89 6856.58 1086.59C6835.6 1080.3 6816.03 1077.15 6797.85 1077.15C6775.01 1077.15 6756.83 1081.11 6743.31 1089.04C6729.8 1096.97 6723.5 1109.09 6724.44 1125.4C6725.37 1137.53 6729.91 1146.97 6738.07 1153.73C6746.23 1160.49 6756.25 1165.96 6768.13 1170.16C6780.02 1174.36 6792.61 1177.74 6805.89 1180.3C6819.17 1182.86 6831.41 1185.78 6842.6 1189.04C6884.55 1202.56 6923 1217.25 6957.96 1233.1C6992.92 1248.95 7023.22 1268.41 7048.85 1291.49C7074.49 1314.57 7094.42 1342.19 7108.63 1374.36C7122.85 1406.53 7129.96 1445.69 7129.96 1491.84C7129.96 1538 7120.75 1579.25 7102.34 1615.62C7083.93 1651.98 7058.64 1682.52 7026.48 1707.23C6994.32 1731.94 6956.21 1750.82 6912.16 1763.87C6868.12 1776.93 6820.69 1783.45 6769.88 1783.45C6740.98 1783.45 6711.62 1780.89 6681.79 1775.76C6651.95 1770.63 6623.05 1762.36 6595.09 1750.93C6567.12 1739.51 6540.55 1724.83 6515.38 1706.88C6490.21 1688.93 6467.84 1667.13 6448.26 1641.49C6443.13 1634.97 6439.29 1628.09 6436.72 1620.86C6434.16 1613.64 6433 1606.53 6433.23 1599.53C6433.46 1592.54 6434.86 1586.13 6437.42 1580.3C6439.99 1574.48 6444.07 1569.46 6449.66 1565.27L6539.85 1475.06C6551.04 1465.73 6560.94 1462.47 6569.57 1465.27C6578.19 1468.06 6589.26 1475.99 6602.78 1489.04ZM7297.76 885.542C7303.82 880.414 7310.11 877.15 7316.64 875.752C7323.16 874.353 7329.46 873.654 7335.52 873.654H7441.09C7449.95 873.654 7457.29 875.052 7463.12 877.849C7468.94 880.647 7473.72 884.493 7477.45 889.388C7481.18 894.283 7484.32 899.878 7486.89 906.171C7489.45 912.465 7491.9 919.342 7494.23 926.801L7523.6 1011.42C7536.65 994.634 7549.81 977.501 7563.1 960.018C7576.38 942.535 7592.11 926.684 7610.29 912.465C7628.47 898.246 7650.15 886.474 7675.32 877.15C7700.49 867.826 7731.25 863.164 7767.61 863.164C7831.47 863.164 7890.31 874.936 7944.15 898.479C7997.99 922.022 8044.37 954.424 8083.29 995.683C8122.21 1036.94 8152.62 1085.43 8174.53 1141.14C8196.44 1196.85 8207.39 1257.11 8207.39 1321.91C8207.39 1386.25 8196.44 1446.39 8174.53 1502.33C8152.62 1558.28 8122.21 1606.88 8083.29 1648.14C8044.37 1689.4 7997.99 1721.91 7944.15 1745.69C7890.31 1769.47 7831.47 1781.35 7767.61 1781.35C7737.31 1781.35 7711.21 1777.74 7689.3 1770.52C7667.39 1763.29 7647.93 1753.85 7630.92 1742.19C7613.91 1730.54 7598.87 1717.72 7585.82 1703.73C7572.77 1689.75 7559.95 1675.76 7547.37 1661.77V1987.65C7547.37 2001.64 7543.17 2013.52 7534.78 2023.31C7526.39 2033.1 7513.34 2038 7495.63 2038H7335.52C7329.92 2038 7323.86 2036.83 7317.34 2034.5C7310.81 2032.17 7304.75 2028.91 7299.16 2024.71C7293.57 2020.52 7288.9 2015.27 7285.18 2008.98C7281.45 2002.69 7279.58 1995.58 7279.58 1987.65V925.402C7279.58 916.078 7281.33 908.386 7284.83 902.325C7288.32 896.265 7292.63 890.67 7297.76 885.542ZM7950.79 1321.91C7950.79 1292.07 7945.9 1263.75 7936.11 1236.94C7926.32 1210.14 7912.57 1186.71 7894.86 1166.66C7877.15 1146.62 7855.94 1130.77 7831.23 1119.11C7806.53 1107.46 7779.26 1101.63 7749.43 1101.63C7720.06 1101.63 7692.21 1107.11 7665.88 1118.06C7639.54 1129.02 7616.47 1143.94 7596.66 1162.82C7576.85 1181.7 7560.77 1203.96 7548.42 1229.6C7536.06 1255.24 7529.19 1282.52 7527.79 1311.42V1321.91C7527.79 1352.68 7533.62 1381.58 7545.27 1408.62C7556.92 1435.66 7572.77 1459.09 7592.81 1478.9C7612.86 1498.72 7636.4 1514.45 7663.43 1526.11C7690.47 1537.76 7719.13 1543.59 7749.43 1543.59C7779.26 1543.59 7806.53 1537.76 7831.23 1526.11C7855.94 1514.45 7877.15 1498.72 7894.86 1478.9C7912.57 1459.09 7926.32 1435.66 7936.11 1408.62C7945.9 1381.58 7950.79 1352.68 7950.79 1321.91ZM8347.23 928.899C8347.23 920.973 8348.97 913.398 8352.47 906.171C8355.97 898.945 8360.28 893.234 8365.4 889.038C8377.52 881.113 8390.11 877.15 8403.16 877.15H8508.74C8517.59 877.15 8524.58 878.782 8529.71 882.045C8534.84 885.309 8539.15 889.505 8542.65 894.633C8546.14 899.761 8549.17 905.589 8551.74 912.115C8554.3 918.642 8557.45 925.169 8561.17 931.696C8562.11 933.561 8563.97 938.106 8566.77 945.333C8569.56 952.559 8572.59 960.484 8575.86 969.109C8579.12 977.734 8582.27 985.892 8585.3 993.585C8588.33 1001.28 8590.31 1006.29 8591.24 1008.62C8605.22 993.235 8618.62 977.034 8631.44 960.018C8644.26 943.002 8657.89 927.267 8672.34 912.815C8686.79 898.362 8702.87 886.474 8720.59 877.15C8738.3 867.826 8759.27 863.164 8783.51 863.164C8808.68 863.164 8831.17 865.029 8850.98 868.758C8870.79 872.488 8889.55 877.966 8907.27 885.192C8924.98 892.418 8942.58 901.626 8960.05 912.815C8977.53 924.004 8996.53 937.057 9017.04 951.976C9049.2 969.226 9055.26 994.867 9035.22 1028.9L8971.59 1137.29C8962.27 1151.28 8950.85 1159.9 8937.33 1163.17C8923.81 1166.43 8909.13 1164.33 8893.28 1156.87C8873.24 1137.29 8852.85 1122.72 8832.11 1113.17C8811.36 1103.61 8787.71 1098.83 8761.14 1098.83C8742.96 1098.83 8727 1101.39 8713.25 1106.52C8699.49 1111.65 8687.03 1118.88 8675.84 1128.2C8664.65 1137.53 8654.16 1148.71 8644.38 1161.77C8634.59 1174.82 8624.8 1189.27 8615.01 1205.13V1711.42C8615.01 1729.14 8610.7 1742.54 8602.08 1751.63C8593.45 1760.72 8579.12 1765.27 8559.08 1765.27H8401.76C8365.4 1765.27 8347.23 1747.32 8347.23 1711.42V928.899ZM9151.28 931.696C9151.28 916.778 9155.47 903.957 9163.86 893.234C9172.26 882.511 9185.31 877.15 9203.02 877.15H9363.13C9368.72 877.15 9374.78 878.432 9381.31 880.996C9387.83 883.56 9393.89 887.29 9399.49 892.185C9405.08 897.08 9409.86 902.791 9413.82 909.318C9417.78 915.845 9419.76 923.304 9419.76 931.696V1711.42C9419.76 1729.14 9414.87 1742.54 9405.08 1751.63C9395.29 1760.72 9381.31 1765.27 9363.13 1765.27H9203.02C9168.53 1765.27 9151.28 1747.32 9151.28 1711.42V931.696ZM9151.28 577.847C9151.28 558.266 9155.47 544.396 9163.86 536.238C9172.26 528.079 9185.31 524 9203.02 524H9365.23C9381.54 524 9394.71 528.079 9404.73 536.238C9414.75 544.396 9419.76 558.266 9419.76 577.847V714.212C9419.76 719.806 9418.48 725.867 9415.92 732.394C9413.35 738.92 9409.74 745.214 9405.08 751.275C9400.42 757.335 9394.71 762.347 9387.95 766.31C9381.19 770.273 9373.62 772.254 9365.23 772.254H9203.02C9168.53 772.254 9151.28 752.907 9151.28 714.212V577.847ZM9605.74 889.038C9611.8 883.91 9618.21 880.647 9624.97 879.248C9631.73 877.849 9638.14 877.15 9644.2 877.15H9749.78C9758.17 877.15 9765.39 878.665 9771.45 881.696C9777.51 884.726 9782.64 888.805 9786.83 893.933C9791.03 899.062 9794.41 904.889 9796.97 911.416C9799.53 917.943 9801.98 924.703 9804.31 931.696L9825.99 1021.21C9832.98 1006.76 9843.12 990.321 9856.4 971.906C9869.68 953.491 9886.58 936.242 9907.09 920.158C9927.6 904.073 9951.95 890.554 9980.15 879.598C10008.4 868.642 10041.1 863.164 10078.4 863.164C10131.5 863.164 10179.8 873.42 10223.1 893.933C10266.5 914.447 10303.4 942.419 10333.9 977.85C10364.5 1013.28 10388.1 1054.66 10404.9 1101.98C10421.7 1149.3 10430.1 1199.76 10430.1 1253.38V1711.42C10430.1 1729.14 10426.2 1742.54 10418.5 1751.63C10410.8 1760.72 10398.6 1765.27 10381.8 1765.27H10220.3C10200.3 1765.27 10186.5 1761.89 10179.1 1755.13C10171.6 1748.37 10167.9 1735.2 10167.9 1715.62V1260.37C10167.9 1240.32 10163.3 1221.33 10154.2 1203.38C10145.2 1185.43 10133.2 1169.58 10118.2 1155.82C10103.3 1142.07 10086.4 1131.23 10067.6 1123.31C10048.7 1115.38 10029.4 1111.42 10009.9 1111.42C9993.09 1111.42 9975.96 1115.15 9958.48 1122.61C9941 1130.07 9924.92 1140.44 9910.24 1153.73C9895.55 1167.01 9883.2 1182.63 9873.18 1200.58C9863.16 1218.53 9857.45 1237.99 9856.05 1258.97V1713.52C9856.05 1721.45 9854.54 1729.37 9851.51 1737.3C9848.48 1745.22 9843.93 1751.28 9837.87 1755.48C9831.81 1759.21 9826.1 1761.77 9820.74 1763.17C9815.38 1764.57 9809.21 1765.27 9802.21 1765.27H9644.2C9624.16 1765.27 9609.71 1760.38 9600.85 1750.58C9591.99 1740.79 9587.57 1727.74 9587.57 1711.42V928.899C9587.57 920.041 9589.55 911.882 9593.51 904.423C9597.47 896.964 9602.95 891.136 9609.94 886.94L9605.74 889.038ZM10651.7 738.687C10651.7 724.235 10656.5 713.396 10666 706.17C10675.6 698.943 10689.2 692.067 10706.9 685.54L10865.7 630.295C10868 629.828 10870.2 629.595 10872.3 629.595H10878.2C10895.5 629.595 10907 634.607 10912.9 644.63C10918.7 654.654 10921.6 667.824 10921.6 684.141L10920.9 904.423H11037.7C11052.6 904.423 11064.7 908.852 11074 917.71C11083.3 926.568 11088 939.855 11088 957.57V1092.54C11088 1112.12 11083.3 1126.45 11074 1135.54C11064.7 1144.64 11052.6 1149.18 11037.7 1149.18H10920.9L10921.6 1711.42C10921.6 1729.14 10916.5 1742.54 10906.2 1751.63C10896 1760.72 10881.7 1765.27 10863.6 1765.27H10705.6C10669.7 1765.27 10651.7 1747.32 10651.7 1711.42L10651 1149.18H10600C10564.1 1149.18 10546.1 1130.3 10546.1 1092.54V957.57C10546.1 922.139 10564.1 904.423 10600 904.423H10651L10651.7 738.687Z" fill="white"/>
</g>
<defs>
<filter id="filter0_d_301_17" x="0" y="0" width="11092" height="2483.69" filterUnits="userSpaceOnUse" color-interpolation-filters="sRGB">
<feFlood flood-opacity="0" result="BackgroundImageFix"/>
<feColorMatrix in="SourceAlpha" type="matrix" values="0 0 0 0 0 0 0 0 0 0 0 0 0 0 0 0 0 0 127 0" result="hardAlpha"/>
<feOffset dy="4"/>
<feGaussianBlur stdDeviation="2"/>
<feComposite in2="hardAlpha" operator="out"/>
<feColorMatrix type="matrix" values="0 0 0 0 0 0 0 0 0 0 0 0 0 0 0 0 0 0 0.25 0"/>
<feBlend mode="normal" in2="BackgroundImageFix" result="effect1_dropShadow_301_17"/>
<feBlend mode="normal" in="SourceGraphic" in2="effect1_dropShadow_301_17" result="shape"/>
</filter>
</defs>
</svg>
